<svg width="565" height="587" viewBox="0 0 565 587" fill="none" xmlns="http://www.w3.org/2000/svg">
<path d="M294.978 459.167C229.463 450.16 122.329 427.485 119.02 375.303C114.746 307.921 228.922 328.673 228.922 328.673C228.922 328.673 22.9653 222.132 76.223 159.121C98.0932 133.245 137.795 147.363 176.996 172.991C233.257 209.771 288.484 270.26 288.484 270.26M326.8 228.944C292.932 186.971 265.068 164.591 242.874 154.437M242.874 154.437C297.947 74.7274 395.818 218.087 442.316 303.708C450.01 317.875 456.324 330.416 460.841 340.044M347.62 465.04C347.62 465.04 324.03 463.162 294.978 459.167M331.646 292.362C353.41 306.075 371.769 327.939 382.625 344.014M286.248 338.706C307.658 350.961 323.1 365.297 340.191 381.571M294.978 459.167C294.978 459.167 278.991 502.59 306.288 523.053C357.77 561.645 563.911 346.127 506.505 293.727C479.451 269.033 442.316 303.708 442.316 303.708M242.874 154.437C204.748 136.994 183.354 155.627 176.996 172.991" stroke="#FAC775" stroke-width="20"/>
</svg>
